# xmcd
#
# Track frame offsets:
#	150
#	18997
#	38477
#	56560
#	79742
#	92362
#	114835
#	145477
#	159980
#	174117
#	187465
#	199305
#	212122
#	235807
#
# Disc length: 3352 seconds
#
# Revision: 1
# Processed by: cddbd v1.4b41PL1 Copyright (c) Steve Scherf et al.
# Submitted via: audiograbber 1.80
#
DISCID=b30d160e
DTITLE=Texas Tornados - Live From The Limo, Vol. 1
DYEAR=1900
DGENRE=
TTITLE0=Hey Baby Kep-Pa So
TTITLE1=South Of The Border (Down Mexico Way)
TTITLE2=Soy De San Luis
TTITLE3=I Don't Want To Be Lonely
TTITLE4=Dinero
TTITLE5=Eighteen Yellow Roses
TTITLE6=La Mucura - A Mover El Bote
TTITLE7=Adios Mexico
TTITLE8=Marina
TTITLE9=Laredo Rose
TTITLE10=Nitty Gritty
TTITLE11=Wasted Days, Wasted Nights
TTITLE12=Mendocino
TTITLE13=Who Were You Thinking Of?
EXTD=
EXTT0=
EXTT1=
EXTT2=
EXTT3=
EXTT4=
EXTT5=
EXTT6=
EXTT7=
EXTT8=
EXTT9=
EXTT10=
EXTT11=
EXTT12=
EXTT13=
PLAYORDER=
